<svg width="61" height="60" viewBox="0 0 61 60" fill="none" xmlns="http://www.w3.org/2000/svg">
<g clip-path="url(#clip0_49_188)">
<path d="M46.4507 0H14.5757C6.80918 0 0.513184 6.296 0.513184 14.0625V45.9375C0.513184 53.704 6.80918 60 14.5757 60H46.4507C54.2172 60 60.5132 53.704 60.5132 45.9375V14.0625C60.5132 6.296 54.2172 0 46.4507 0Z" fill="#3CA2A6"/>
<path fill-rule="evenodd" clip-rule="evenodd" d="M4.96631 31.995V28.1473C5.04693 28.1072 5.04693 28.027 5.04693 27.9469C6.25701 22.6964 9.56475 19.53 14.8087 18.2873C15.2523 18.1671 15.7363 18.2072 16.1802 18.0469H18.7616C18.8019 18.127 18.9231 18.087 19.0037 18.087C21.5854 18.3675 23.9249 19.2893 25.982 20.8927C27.7569 22.2152 29.1285 23.8987 30.3789 25.7023C30.5401 25.9427 30.621 25.9427 30.7822 25.7023C31.5083 24.6602 32.2747 23.6583 33.1621 22.7365C35.3001 20.4518 37.8817 18.8484 41.028 18.2873C41.4716 18.1671 41.9959 18.2072 42.4398 18.0469H44.9406C44.9809 18.127 45.0618 18.087 45.1424 18.087C45.9088 18.1671 46.6349 18.3274 47.361 18.5278C52.7662 20.0911 56.5982 25.0209 56.2755 30.5923C56.0333 35.2819 53.6535 38.6487 49.4987 40.7728C47.4416 41.8952 45.1827 42.1758 42.8432 42.1357C39.7776 42.0956 37.1153 41.0534 34.8161 39.0494C33.2024 37.6465 31.952 35.9632 30.7822 34.1995C30.621 33.9591 30.5401 33.9991 30.3789 34.2396C29.6528 35.322 28.8864 36.4041 27.999 37.4461C26.4259 39.2098 24.6107 40.6526 22.3518 41.4143C19.5683 42.3762 16.7448 42.4163 13.9213 41.6548C9.84717 40.4923 7.06396 37.927 5.53115 33.9991C5.28904 33.3579 5.16787 32.6365 4.96631 31.995ZM17.7937 37.887C20.0929 37.9671 22.0694 37.2056 23.7634 35.6426C25.498 34.0392 26.7484 32.0351 27.999 30.0712C28.0394 29.951 28.0394 29.8709 27.9587 29.7506C26.9099 28.1072 25.8208 26.464 24.3686 25.1011C21.5854 22.4557 18.318 21.574 14.6474 22.7363C11.6221 23.7384 9.68568 25.8626 9.24201 29.0691C8.79834 32.0752 9.96811 34.4801 12.3883 36.2838C14.0019 37.4461 15.8172 37.927 17.7937 37.887ZM43.3675 37.887C44.2548 37.887 45.1424 37.8469 45.9894 37.6064C49.176 36.6445 51.2737 34.6805 51.8788 31.3938C52.4837 28.1473 51.2333 25.542 48.4905 23.6984C45.4651 21.6141 41.0683 21.8145 38.0026 24.0991C35.9455 25.6221 34.574 27.6663 33.2024 29.7907C33.1218 29.9109 33.1621 29.9911 33.2024 30.1113C34.2915 31.8347 35.3807 33.5583 36.7926 35.0412C38.5672 36.9251 40.7052 38.0072 43.3675 37.887Z" fill="white"/>
<path fill-rule="evenodd" clip-rule="evenodd" d="M17.7533 28.7886C19.044 28.7886 20.3752 28.8287 21.6659 28.7886C21.9887 28.7886 22.029 28.8688 22.029 29.1894C21.9886 29.5491 21.9886 29.9121 22.029 30.2717C22.0693 30.5924 21.9887 30.6725 21.6256 30.6725H16.4623C15.575 30.6725 14.6876 30.6325 13.8001 30.6725C13.5176 30.6725 13.437 30.5924 13.437 30.2717C13.4773 29.911 13.4773 29.5503 13.437 29.1493C13.437 28.8688 13.5176 28.7886 13.8003 28.7886C15.091 28.8287 16.422 28.7886 17.7533 28.7886ZM43.1658 26.2234C43.4883 26.2234 43.8111 26.2635 44.0935 26.2234C44.2953 26.2234 44.3759 26.3035 44.3759 26.5039C44.3356 27.0653 44.3759 27.6264 44.3356 28.1875C44.3356 28.468 44.4162 28.5482 44.6987 28.5482C45.2229 28.5081 45.7878 28.5482 46.3524 28.5081C46.5945 28.5081 46.6751 28.5482 46.6751 28.8287V30.6725C46.6751 30.8729 46.5945 30.9531 46.3927 30.9531C45.8281 30.913 45.2633 30.9531 44.6583 30.913C44.4162 30.913 44.3356 30.9932 44.3356 31.2336C44.3759 31.7947 44.3356 32.3558 44.3759 32.9171C44.3759 33.1576 44.2953 33.2778 44.0532 33.2778C43.4488 33.2378 42.8424 33.2378 42.238 33.2778C41.9961 33.2778 41.9152 33.1977 41.9152 32.9572C41.9555 32.3558 41.9152 31.7947 41.9555 31.1935C41.9555 30.9932 41.8749 30.913 41.6733 30.913C41.1085 30.9531 40.5439 30.913 39.979 30.9531C39.6563 30.9531 39.616 30.8328 39.616 30.5924C39.616 30.0313 39.6563 29.47 39.616 28.9089C39.5757 28.5882 39.7372 28.5081 40.0194 28.5081C40.5842 28.5482 41.1085 28.5081 41.6733 28.5482C41.8749 28.5482 41.9555 28.468 41.9555 28.2676C41.9152 27.7065 41.9555 27.1053 41.9152 26.5442C41.9152 26.3035 41.9961 26.2234 42.238 26.2234C42.5607 26.2635 42.8431 26.2234 43.1658 26.2234Z" fill="white"/>
</g>
<defs>
<clipPath id="clip0_49_188">
<rect width="60" height="60" fill="white" transform="translate(0.513184)"/>
</clipPath>
</defs>
</svg>
