<svg width="81" height="80" viewBox="0 0 81 80" fill="none" xmlns="http://www.w3.org/2000/svg">
<path d="M19.1479 64.0018L14.3247 10H67.3247L62.4968 63.9936L40.7926 70L19.1479 64.0018Z" fill="#4289BD"/>
<path d="M40.3246 34.3863H49.12L49.7396 27.6137H40.1489V21H57.1489L56.9862 22.7745L55.3196 41H40.3246V34.3863Z" fill="#EBEBEB"/>
<path d="M40.3246 51L33.0111 49.2209L32.5565 44H26.1489L27.043 54.2785L40.3246 58V51Z" fill="#EBEBEB"/>
<path d="M48.3247 41L46.7966 48.9922L40.3247 51V58L53.3247 54L55.3247 41H48.3247Z" fill="#EBEBEB"/>
<path d="M40.1489 21V27.6134H24.7207L24.5927 26.1273L24.3018 22.7745L24.1489 21H40.1489ZM40.3246 34.3866V41H33.1035L32.9756 39.5139L32.6842 36.161L32.5318 34.3866H40.3246Z" fill="#EBEBEB"/>
</svg>
