<svg width="71" height="70" viewBox="0 0 71 70" fill="none" xmlns="http://www.w3.org/2000/svg">
<path d="M13.2007 53.8125L13.5726 53.2941L31.1163 20.0135L31.1535 19.6613L23.4207 5.13627C23.2791 4.87066 23.0576 4.65628 22.7875 4.52348C22.5174 4.39067 22.2124 4.34615 21.9156 4.39622C21.6188 4.44629 21.3453 4.58841 21.1337 4.80248C20.9221 5.01655 20.7832 5.29173 20.7366 5.58908L13.2007 53.8125Z" fill="#FFC24A"/>
<path d="M13.4194 53.4187L13.6994 52.8718L31.0616 19.9368L23.3485 5.35491C23.2213 5.10132 23.0154 4.89577 22.7615 4.76906C22.5077 4.64234 22.2196 4.60128 21.9405 4.65203C21.6614 4.70278 21.4062 4.84261 21.2132 5.05056C21.0203 5.25852 20.8998 5.5234 20.8701 5.80554L13.4194 53.4187Z" fill="#FFAE24"/>
<path d="M36.7907 30.647L42.5482 24.7407L36.7886 13.7573C36.6618 13.5209 36.4733 13.3233 36.2431 13.1856C36.013 13.0478 35.7498 12.9751 35.4815 12.9751C35.2133 12.9751 34.9501 13.0478 34.7199 13.1856C34.4898 13.3233 34.3013 13.5209 34.1745 13.7573L31.0967 19.6241V20.1251L36.7907 30.647Z" fill="#F4BD62"/>
<path d="M36.6879 30.4063L42.2858 24.6751L36.6879 14.0001C36.5963 13.769 36.4398 13.5693 36.2373 13.4252C36.0348 13.2811 35.7949 13.1986 35.5466 13.1878C35.2982 13.1769 35.052 13.2381 34.8377 13.364C34.6234 13.4899 34.45 13.6751 34.3386 13.8972L31.2454 19.8669L31.1536 20.171L36.6879 30.4063Z" fill="#FFAC21"/>
<path d="M13.2051 53.8147L13.3735 53.6441L13.9838 53.3969L36.4276 31.0363L36.712 30.2619L31.1141 19.5913L13.2051 53.8147Z" fill="#FC9124"/>
<path d="M37.5082 65.0912L57.8257 53.7621L52.0201 18.0381C51.9784 17.7862 51.8682 17.5507 51.7016 17.3574C51.5349 17.1641 51.3181 17.0205 51.0752 16.9423C50.8322 16.8641 50.5724 16.8543 50.3242 16.9141C50.0761 16.9739 49.8492 17.1009 49.6685 17.2812L13.2007 53.8125L33.3979 65.089C34.0258 65.4394 34.7329 65.6233 35.4519 65.6233C36.171 65.6233 36.8781 65.4394 37.506 65.089" fill="#FDE068"/>
<path d="M57.6397 53.6682L51.8822 18.2132C51.8721 17.9723 51.7907 17.7399 51.6484 17.5453C51.506 17.3507 51.3092 17.2027 51.0827 17.12C50.8562 17.0373 50.6103 17.0237 50.3761 17.0809C50.1419 17.138 49.9299 17.2633 49.7669 17.441L13.4194 53.7448L33.3935 64.901C34.0164 65.2485 34.7179 65.4309 35.4312 65.4309C36.1444 65.4309 36.8459 65.2485 37.4688 64.901L57.6397 53.6682Z" fill="#FFD663"/>
<path d="M37.5082 64.7501C36.8803 65.1005 36.1732 65.2844 35.4541 65.2844C34.7351 65.2844 34.028 65.1005 33.4001 64.7501L13.3669 53.642L13.2007 53.8126L33.3979 65.0892C34.0258 65.4396 34.7329 65.6235 35.4519 65.6235C36.171 65.6235 36.8781 65.4396 37.506 65.0892L57.8257 53.7623L57.7754 53.4561L37.5082 64.7501Z" fill="#EEAB37"/>
</svg>
