<svg width="61" height="60" viewBox="0 0 61 60" fill="none" xmlns="http://www.w3.org/2000/svg">
<g clip-path="url(#clip0_49_193)">
<path d="M58.8963 27.3646L33.0606 1.52992C31.5738 0.0421094 29.1606 0.0421094 27.6714 1.52992L22.307 6.89523L29.1124 13.7005C30.6944 13.1666 32.5075 13.5248 33.768 14.7852C35.035 16.0537 35.3903 17.8823 34.8433 19.4695L41.402 26.0287C42.9888 25.4816 44.8202 25.8351 46.0867 27.1045C47.8586 28.8749 47.8586 31.7451 46.0867 33.5165C45.6657 33.9378 45.1657 34.2719 44.6155 34.4999C44.0652 34.728 43.4754 34.8453 42.8798 34.8453C42.2841 34.8453 41.6944 34.728 41.1441 34.4999C40.5938 34.2719 40.0939 33.9378 39.6728 33.5165C39.0402 32.8835 38.609 32.0775 38.4334 31.1999C38.2578 30.3223 38.3457 29.4125 38.6861 28.5848L32.5698 22.4685L32.5689 38.5659C33.0127 38.7844 33.4178 39.0738 33.7684 39.4227C35.5394 41.1932 35.5394 44.0624 33.7684 45.8366C31.997 47.6071 29.1259 47.6071 27.3564 45.8366C25.5855 44.0629 25.5855 41.1937 27.3564 39.4227C27.7807 38.9978 28.2854 38.6616 28.8409 38.4337V22.1873C28.2849 21.96 27.7801 21.6235 27.3564 21.1977C26.0149 19.8571 25.6919 17.8884 26.38 16.2402L19.6708 9.53102L1.95579 27.2451C1.24109 27.96 0.8396 28.9295 0.8396 29.9404C0.8396 30.9513 1.24109 31.9208 1.95579 32.6357L27.7919 58.4704C29.2797 59.9582 31.6919 59.9582 33.182 58.4704L58.8967 32.7557C59.6113 32.0406 60.0126 31.071 60.0125 30.0601C60.0124 29.0491 59.6109 28.0796 58.8963 27.3646Z" fill="#F87171"/>
</g>
<defs>
<clipPath id="clip0_49_193">
<rect width="60" height="60" fill="white" transform="translate(0.425781)"/>
</clipPath>
</defs>
</svg>
