<svg width="81" height="80" viewBox="0 0 81 80" fill="none" xmlns="http://www.w3.org/2000/svg">
<path d="M18.8235 64.0021L14 10H67L62.1701 63.9936L40.4678 70L18.8235 64.0021Z" fill="#E8785A"/>
<path d="M40 34.2247H31.5561L30.9739 27.5341H40V21H24L24.1528 22.7546L25.7197 40.7588H40V34.2247ZM40 51.1932L39.9711 51.2016L32.865 49.2378L32.4108 44.027H26.0046L26.8986 54.2837L39.9711 58L40 57.9916V51.1932Z" fill="#EBEBEB"/>
<path d="M40 34.2255V40.76H48.3562L47.5702 49.2352L40 51.2012V58L53.9131 54.2856L54.0141 53.1821L55.608 35.9801L55.7749 34.2255H40ZM40 21V27.5345H56.3918L56.528 26.0674L56.8375 22.7547L57 21H40Z" fill="#EBEBEB"/>
</svg>
