<svg width="81" height="80" viewBox="0 0 81 80" fill="none" xmlns="http://www.w3.org/2000/svg">
<path d="M47.3605 49.25C48.1361 50.8222 49.3396 52.1437 50.8325 53.0627C52.3255 53.9816 54.0475 54.4608 55.8005 54.445C59.3455 54.445 61.6105 52.6725 61.6105 50.225C61.6105 47.2925 59.283 46.2525 55.383 44.545L53.243 43.6275C47.0705 40.9975 42.968 37.7025 42.968 30.7375C42.968 24.32 47.858 19.4375 55.498 19.4375C57.9777 19.2575 60.4553 19.8126 62.6212 21.0331C64.7871 22.2537 66.5452 24.0857 67.6755 26.3L61.013 30.5775C60.5768 29.4802 59.817 28.5417 58.8346 27.8866C57.8522 27.2315 56.6937 26.8909 55.513 26.91C54.9984 26.8582 54.4787 26.9142 53.9869 27.0745C53.4951 27.2347 53.0422 27.4957 52.6569 27.8408C52.2716 28.1859 51.9624 28.6074 51.7491 29.0786C51.5358 29.5498 51.4231 30.0603 51.418 30.5775C51.418 33.145 53.008 34.1825 56.668 35.7725L58.808 36.6875C66.078 39.805 70.1805 42.9825 70.1805 50.1275C70.1805 57.83 64.1305 62.05 56.003 62.05C52.8372 62.2513 49.6808 61.5323 46.9145 59.9797C44.1482 58.4271 41.8902 56.1073 40.413 53.3L47.3605 49.25ZM17.1405 50C18.4855 52.385 19.708 54.4 22.6405 54.4C25.4505 54.4 27.2255 53.3 27.2255 49.025V19.9375H35.7805V49.145C35.7805 58.0025 30.5855 62.035 23.0055 62.035C20.328 62.1799 17.6693 61.5109 15.3793 60.116C13.0892 58.7211 11.2751 56.6656 10.1755 54.22L17.1405 50Z" fill="#F59E0B"/>
</svg>
