<svg width="62" height="60" viewBox="0 0 62 60" fill="none" xmlns="http://www.w3.org/2000/svg">
<path d="M30.6357 0C15.2308 0 16.1926 6.66565 16.1926 6.66565L16.2097 13.5715H30.9104V15.6448H10.3708C10.3708 15.6448 0.513184 14.5293 0.513184 30.0382C0.513184 45.5476 9.11718 44.9976 9.11718 44.9976H14.252V37.8006C14.252 37.8006 13.9752 29.2158 22.7187 29.2158H37.2991C37.2991 29.2158 45.4909 29.3478 45.4909 21.3163V8.03672C45.4909 8.03672 46.735 0 30.6357 0ZM22.5298 4.64403C22.8772 4.64372 23.2212 4.71176 23.5422 4.84426C23.8632 4.97676 24.1549 5.17111 24.4005 5.41621C24.6462 5.6613 24.841 5.95232 24.9737 6.27261C25.1065 6.5929 25.1747 6.93617 25.1744 7.28279C25.1747 7.6294 25.1065 7.97268 24.9737 8.29297C24.841 8.61326 24.6462 8.90427 24.4005 9.14937C24.1549 9.39446 23.8632 9.58882 23.5422 9.72132C23.2212 9.85382 22.8772 9.92186 22.5298 9.92155C22.1824 9.92186 21.8384 9.85382 21.5173 9.72132C21.1963 9.58882 20.9047 9.39446 20.659 9.14937C20.4134 8.90427 20.2186 8.61326 20.0858 8.29297C19.953 7.97268 19.8848 7.6294 19.8851 7.28279C19.8848 6.93617 19.953 6.5929 20.0858 6.27261C20.2186 5.95232 20.4134 5.6613 20.659 5.41621C20.9047 5.17111 21.1963 4.97676 21.5173 4.84426C21.8384 4.71176 22.1824 4.64372 22.5298 4.64403Z" fill="url(#paint0_linear_49_386)"/>
<path d="M31.5666 60C46.9716 60 46.0098 53.3344 46.0098 53.3344L45.9927 46.4288H31.2917V44.3555H51.8313C51.8313 44.3555 61.689 45.471 61.689 29.9615C61.689 14.4524 53.085 15.0024 53.085 15.0024H47.9501V22.1991C47.9501 22.1991 48.2269 30.784 39.4835 30.784H24.903C24.903 30.784 16.7112 30.6519 16.7112 38.6837V51.9635C16.7112 51.9635 15.4673 60 31.5664 60H31.5666ZM39.6726 55.3565C39.3252 55.3568 38.9812 55.2887 38.6602 55.1562C38.3392 55.0237 38.0475 54.8294 37.8019 54.5843C37.5562 54.3392 37.3614 54.0482 37.2286 53.7279C37.0958 53.4076 37.0276 53.0643 37.028 52.7177C37.0276 52.3711 37.0958 52.0278 37.2286 51.7075C37.3613 51.3871 37.5561 51.0961 37.8018 50.851C38.0474 50.6059 38.3391 50.4115 38.6601 50.279C38.9811 50.1464 39.3252 50.0784 39.6726 50.0787C40.02 50.0784 40.364 50.1464 40.685 50.2789C41.006 50.4114 41.2977 50.6058 41.5433 50.8509C41.789 51.096 41.9838 51.387 42.1166 51.7073C42.2494 52.0276 42.3176 52.3709 42.3172 52.7175C42.3176 53.0641 42.2494 53.4074 42.1166 53.7276C41.9838 54.0479 41.789 54.339 41.5433 54.584C41.2977 54.8291 41.006 55.0235 40.685 55.156C40.364 55.2885 40.02 55.3568 39.6726 55.3565Z" fill="url(#paint1_linear_49_386)"/>
<defs>
<linearGradient id="paint0_linear_49_386" x1="583.668" y1="541.755" x2="3584.27" y2="3519.05" gradientUnits="userSpaceOnUse">
<stop stop-color="#4386BE"/>
<stop offset="1" stop-color="#477297"/>
</linearGradient>
<linearGradient id="paint1_linear_49_386" x1="877.449" y1="941.055" x2="4100.08" y2="3994.31" gradientUnits="userSpaceOnUse">
<stop stop-color="#FFE365"/>
<stop offset="1" stop-color="#FFCC4F"/>
</linearGradient>
</defs>
</svg>
