<svg width="91" height="80" viewBox="0 0 91 80" fill="none" xmlns="http://www.w3.org/2000/svg">
<path d="M69.0739 31.4472C68.3609 31.201 67.6418 30.9729 66.9174 30.7631C67.0391 30.2626 67.1511 29.7681 67.2505 29.2824C68.8831 21.3055 67.8158 14.8792 64.1704 12.7634C60.6751 10.735 54.9589 12.85 49.1859 17.907C48.617 18.4063 48.0606 18.92 47.5175 19.4476C47.1538 19.0968 46.7838 18.7527 46.4075 18.4157C40.3571 13.0086 34.2925 10.7297 30.651 12.8516C27.1589 14.8863 26.1248 20.9275 27.5946 28.4873C27.7409 29.2361 27.906 29.9809 28.0898 30.7212C27.2314 30.9667 26.403 31.228 25.6103 31.5062C18.5167 33.9956 13.9866 37.8967 13.9866 41.9432C13.9866 46.1225 18.8498 50.3144 26.2382 52.8562C26.8371 53.0614 27.4411 53.2516 28.0495 53.4265C27.8519 54.2238 27.6765 55.0266 27.5235 55.8337C26.1222 63.2624 27.2165 69.1608 30.6991 71.1826C34.2962 73.2705 40.3335 71.1246 46.212 65.9522C46.6887 65.5317 47.1549 65.0993 47.6101 64.6554C48.1983 65.2266 48.8023 65.7813 49.4212 66.3187C55.1157 71.2505 60.7395 73.2421 64.2188 71.2147C67.8124 69.1207 68.9805 62.7843 67.4641 55.0751C67.3446 54.4711 67.2107 53.8701 67.0623 53.2727C67.4863 53.1462 67.9025 53.0161 68.3081 52.8807C75.9891 50.3194 80.9866 46.1783 80.9866 41.9432C80.9866 37.8819 76.3102 33.9545 69.0739 31.4472ZM67.4081 50.1463C67.0417 50.2683 66.6658 50.3861 66.2827 50.5006C65.4347 47.7987 64.2905 44.9257 62.89 41.9572C64.2264 39.0595 65.3266 36.2231 66.1508 33.5388C66.8362 33.7385 67.5013 33.949 68.1425 34.171C74.3426 36.3196 78.1244 39.4957 78.1244 41.9432C78.1244 44.5501 74.04 47.9343 67.4081 50.1463ZM64.6564 55.6346C65.3269 59.0433 65.4224 62.1254 64.9783 64.535C64.5794 66.7001 63.777 68.1434 62.7846 68.7216C60.6733 69.9519 56.1578 68.3528 51.288 64.1348C50.7123 63.6352 50.1506 63.1196 49.6034 62.5885C51.4914 60.5104 53.3781 58.0945 55.2196 55.4112C58.4586 55.122 61.5186 54.6488 64.2936 54.0032C64.4273 54.544 64.5483 55.088 64.6564 55.6346ZM36.8283 68.5091C34.7655 69.2422 33.1224 69.2633 32.1292 68.6869C30.0158 67.4601 29.1372 62.7239 30.3356 56.3711C30.4781 55.6204 30.6412 54.8738 30.8248 54.1323C33.5692 54.7434 36.6069 55.1828 39.8535 55.4478C41.7076 58.0734 43.6487 60.4866 45.6051 62.5999C45.1893 63.0048 44.7637 63.3993 44.3287 63.7832C41.729 66.0703 39.1241 67.693 36.8283 68.5091ZM27.1641 50.1303C23.8971 49.0062 21.199 47.5455 19.3497 45.9515C17.6878 44.5193 16.849 43.097 16.849 41.9432C16.849 39.4875 20.4861 36.3554 26.5525 34.2266C27.2887 33.9685 28.0592 33.7248 28.8587 33.4961C29.6973 36.2411 30.797 39.1111 32.1242 42.0133C30.7798 44.9584 29.6643 47.8743 28.8176 50.6516C28.2623 50.4915 27.711 50.3176 27.1641 50.1303ZM30.4037 27.9339C29.1445 21.457 29.9807 16.5712 32.0852 15.345C34.3266 14.0389 39.283 15.901 44.5072 20.57C44.8478 20.8752 45.183 21.1865 45.5124 21.5039C43.5658 23.6079 41.6424 26.0032 39.8049 28.6133C36.6538 28.9072 33.6375 29.3793 30.8643 30.0118C30.6934 29.3232 30.5398 28.6302 30.4037 27.9339ZM59.3045 35.117C58.6495 33.9782 57.9701 32.8537 57.267 31.7444C59.4047 32.0165 61.4529 32.3776 63.3763 32.8191C62.799 34.6821 62.0792 36.6296 61.232 38.6264C60.6128 37.4438 59.9701 36.2738 59.3045 35.117ZM47.5188 23.5628C48.8389 25.0025 50.1611 26.6096 51.4616 28.3535C48.8234 28.2281 46.1809 28.2276 43.5427 28.3519C44.8445 26.6241 46.178 25.0191 47.5188 23.5628ZM35.6574 35.1368C35.0001 36.2842 34.3694 37.447 33.766 38.624C32.9327 36.6344 32.2195 34.6779 31.6371 32.7886C33.5487 32.3581 35.5873 32.0062 37.7114 31.7391C37.0004 32.8552 36.3156 33.9883 35.6574 35.1368ZM37.7724 52.3523C35.5778 52.1057 33.5087 51.7719 31.5976 51.3531C32.1891 49.4301 32.918 47.432 33.7694 45.3996C34.3752 46.5776 35.0085 47.741 35.6687 48.889C36.3476 50.0692 37.0505 51.2251 37.7724 52.3523ZM47.5978 60.5264C46.2411 59.0533 44.888 57.4235 43.5665 55.6707C44.8495 55.7212 46.1573 55.7471 47.4866 55.7471C48.8522 55.7471 50.2022 55.7162 51.5309 55.6567C50.2262 57.4412 48.909 59.0734 47.5978 60.5264ZM61.259 45.2958C62.1546 47.3506 62.9094 49.3381 63.5087 51.2282C61.5663 51.6745 59.4688 52.0338 57.2589 52.3006C57.967 51.1707 58.6528 50.0267 59.3157 48.8692C59.9897 47.6928 60.6377 46.5013 61.259 45.2958ZM56.8365 47.4299C55.8216 49.2044 54.7496 50.9453 53.6223 52.6497C51.5803 52.7953 49.5337 52.8676 47.4866 52.8665C45.4015 52.8665 43.3734 52.8012 41.4205 52.6737C40.2637 50.9732 39.1713 49.2293 38.1456 47.4457C37.1247 45.6715 36.1713 43.859 35.2871 42.012C36.1691 40.1645 37.1198 38.3511 38.1372 36.5756L38.1369 36.5759C39.154 34.7999 40.2377 33.0635 41.3856 31.3703C43.3781 31.2186 45.4214 31.1395 47.4863 31.1395C49.5607 31.1395 51.6068 31.2193 53.5988 31.3721C54.7352 33.0628 55.8119 34.7932 56.8271 36.5603C57.8479 38.3319 58.8111 40.1365 59.7154 41.9711C58.8204 43.8245 57.8602 45.6453 56.8365 47.4299ZM62.7409 15.2591C64.9843 16.5615 65.8569 21.8134 64.4473 28.7007C64.3572 29.1401 64.2562 29.5877 64.1463 30.0416C61.3663 29.3956 58.3479 28.9154 55.1876 28.6169C53.3467 25.9782 51.439 23.5792 49.5241 21.5023C50.0259 21.0154 50.5398 20.541 51.0651 20.0798C56.0115 15.7472 60.6345 14.0365 62.7409 15.2591ZM47.4866 35.9213C50.7908 35.9213 53.4695 38.6174 53.4695 41.9432C53.4695 45.269 50.7908 47.9652 47.4866 47.9652C44.1824 47.9652 41.5037 45.269 41.5037 41.9432C41.5037 38.6174 44.1824 35.9213 47.4866 35.9213Z" fill="#38BDF8"/>
</svg>
