<svg width="91" height="80" viewBox="0 0 91 80" fill="none" xmlns="http://www.w3.org/2000/svg">
<path d="M67.0737 29.4472C66.3606 29.201 65.6416 28.9729 64.9171 28.7631C65.0388 28.2626 65.1508 27.7681 65.2503 27.2824C66.8829 19.3055 65.8156 12.8792 62.1701 10.7634C58.6749 8.73498 52.9587 10.85 47.1857 15.907C46.6167 16.4063 46.0604 16.92 45.5172 17.4476C45.1536 17.0968 44.7835 16.7527 44.4073 16.4157C38.3568 11.0086 32.2923 8.72971 28.6507 10.8516C25.1586 12.8863 24.1246 18.9275 25.5944 26.4873C25.7406 27.2361 25.9057 27.9809 26.0896 28.7212C25.2311 28.9667 24.4028 29.228 23.61 29.5062C16.5164 31.9956 11.9863 35.8967 11.9863 39.9432C11.9863 44.1225 16.8496 48.3144 24.2379 50.8562C24.8369 51.0614 25.4409 51.2516 26.0493 51.4265C25.8517 52.2238 25.6763 53.0266 25.5232 53.8337C24.122 61.2624 25.2162 67.1608 28.6989 69.1826C32.296 71.2705 38.3333 69.1246 44.2118 63.9522C44.6884 63.5317 45.1546 63.0993 45.6099 62.6554C46.1981 63.2266 46.802 63.7813 47.421 64.3187C53.1154 69.2505 58.7392 71.2421 62.2185 69.2147C65.8122 67.1207 66.9802 60.7843 65.4638 53.0751C65.3444 52.4711 65.2104 51.8701 65.0621 51.2727C65.4861 51.1462 65.9022 51.0161 66.3079 50.8807C73.9888 48.3194 78.9863 44.1783 78.9863 39.9432C78.9863 35.8819 74.3099 31.9545 67.0737 29.4472ZM65.4078 48.1463C65.0414 48.2683 64.6656 48.3861 64.2824 48.5006C63.4345 45.7987 62.2902 42.9257 60.8898 39.9572C62.2261 37.0595 63.3264 34.2231 64.1505 31.5388C64.836 31.7385 65.501 31.949 66.1422 32.171C72.3423 34.3196 76.1242 37.4957 76.1242 39.9432C76.1242 42.5501 72.0398 45.9343 65.4078 48.1463ZM62.6561 53.6346C63.3266 57.0433 63.4222 60.1254 62.978 62.535C62.5792 64.7001 61.7767 66.1434 60.7843 66.7216C58.673 67.9519 54.1576 66.3528 49.2878 62.1348C48.7121 61.6352 48.1503 61.1196 47.6031 60.5885C49.4911 58.5104 51.3779 56.0945 53.2193 53.4112C56.4584 53.122 59.5184 52.6488 62.2934 52.0032C62.4271 52.544 62.548 53.088 62.6561 53.6346ZM34.8281 66.5091C32.7652 67.2422 31.1222 67.2633 30.1289 66.6869C28.0156 65.4601 27.137 60.7239 28.3354 54.3711C28.4778 53.6204 28.6409 52.8738 28.8245 52.1323C31.5689 52.7434 34.6067 53.1828 37.8533 53.4478C39.7073 56.0734 41.6485 58.4866 43.6048 60.5999C43.1891 61.0048 42.7635 61.3993 42.3284 61.7832C39.7288 64.0703 37.1239 65.693 34.8281 66.5091ZM25.1639 48.1303C21.8968 47.0062 19.1988 45.5455 17.3495 43.9515C15.6876 42.5193 14.8487 41.097 14.8487 39.9432C14.8487 37.4875 18.4859 34.3554 24.5522 32.2266C25.2884 31.9685 26.0589 31.7248 26.8585 31.4961C27.697 34.2411 28.7968 37.1111 30.124 40.0133C28.7795 42.9584 27.6641 45.8743 26.8174 48.6516C26.2621 48.4915 25.7107 48.3176 25.1639 48.1303ZM28.4034 25.9339C27.1443 19.457 27.9805 14.5712 30.085 13.345C32.3263 12.0389 37.2828 13.901 42.5069 18.57C42.8476 18.8752 43.1827 19.1865 43.5122 19.5039C41.5655 21.6079 39.6421 24.0032 37.8046 26.6133C34.6535 26.9072 31.6372 27.3793 28.864 28.0118C28.6932 27.3232 28.5396 26.6302 28.4034 25.9339ZM57.3042 33.117C56.6492 31.9782 55.9699 30.8537 55.2668 29.7444C57.4045 30.0165 59.4527 30.3776 61.3761 30.8191C60.7987 32.6821 60.079 34.6296 59.2318 36.6264C58.6126 35.4438 57.9699 34.2738 57.3042 33.117ZM45.5185 21.5628C46.8386 23.0025 48.1608 24.6096 49.4613 26.3535C46.8232 26.2281 44.1807 26.2276 41.5425 26.3519C42.8443 24.6241 44.1777 23.0191 45.5185 21.5628ZM33.6572 33.1368C32.9998 34.2842 32.3692 35.447 31.7657 36.624C30.9324 34.6344 30.2192 32.6779 29.6369 30.7886C31.5485 30.3581 33.587 30.0062 35.7111 29.7391C35.0002 30.8552 34.3153 31.9883 33.6572 33.1368ZM35.7721 50.3523C33.5776 50.1057 31.5085 49.7719 29.5974 49.3531C30.1889 47.4301 30.9178 45.432 31.7691 43.3996C32.375 44.5776 33.0082 45.741 33.6684 46.889C34.3473 48.0692 35.0503 49.2251 35.7721 50.3523ZM45.5976 58.5264C44.2408 57.0533 42.8877 55.4235 41.5663 53.6707C42.8493 53.7212 44.1571 53.7471 45.4863 53.7471C46.852 53.7471 48.2019 53.7162 49.5307 53.6567C48.226 55.4412 46.9088 57.0734 45.5976 58.5264ZM59.2588 43.2958C60.1544 45.3506 60.9091 47.3381 61.5085 49.2282C59.566 49.6745 57.4686 50.0338 55.2586 50.3006C55.9668 49.1707 56.6525 48.0267 57.3155 46.8692C57.9895 45.6928 58.6374 44.5013 59.2588 43.2958ZM54.8362 45.4299C53.8213 47.2044 52.7494 48.9453 51.6221 50.6497C49.58 50.7953 47.5335 50.8676 45.4863 50.8665C43.4012 50.8665 41.3732 50.8012 39.4202 50.6737C38.2635 48.9732 37.1711 47.2293 36.1453 45.4457C35.1244 43.6715 34.1711 41.859 33.2868 40.012C34.1688 38.1645 35.1195 36.3511 36.1369 34.5756L36.1367 34.5759C37.1537 32.7999 38.2374 31.0635 39.3854 29.3703C41.3779 29.2186 43.4211 29.1395 45.4861 29.1395C47.5604 29.1395 49.6066 29.2193 51.5985 29.3721C52.7349 31.0628 53.8117 32.7932 54.8268 34.5603C55.8476 36.3319 56.8109 38.1365 57.7151 39.9711C56.8202 41.8245 55.8599 43.6453 54.8362 45.4299ZM60.7406 13.2591C62.9841 14.5615 63.8566 19.8134 62.447 26.7007C62.357 27.1401 62.256 27.5877 62.146 28.0416C59.3661 27.3956 56.3477 26.9154 53.1874 26.6169C51.3465 23.9782 49.4388 21.5792 47.5238 19.5023C48.0257 19.0154 48.5395 18.541 49.0648 18.0798C54.0113 13.7472 58.6343 12.0365 60.7406 13.2591ZM45.4863 33.9213C48.7905 33.9213 51.4692 36.6174 51.4692 39.9432C51.4692 43.269 48.7905 45.9652 45.4863 45.9652C42.1821 45.9652 39.5034 43.269 39.5034 39.9432C39.5034 36.6174 42.1821 33.9213 45.4863 33.9213Z" fill="#2563EB"/>
</svg>
